<svg width="24" height="25" viewBox="0 0 24 25" fill="none" xmlns="http://www.w3.org/2000/svg">
<g clip-path="url(#clip0_138683_55)" filter="url(#filter0_d_138683_55)">
<path d="M19.9843 5.50477C19.9468 4.65791 19.8094 4.07569 19.6124 3.5712C19.4093 3.03569 19.0967 2.55625 18.6872 2.15768C18.2871 1.75292 17.8026 1.4384 17.2713 1.23918C16.7619 1.043 16.1805 0.906052 15.3303 0.868713C14.4739 0.828213 14.202 0.818848 12.0297 0.818848C9.85735 0.818848 9.58545 0.828213 8.73213 0.865551C7.88199 0.90289 7.29753 1.03996 6.7912 1.23602C6.2535 1.4384 5.77221 1.74976 5.3721 2.15768C4.96577 2.55625 4.65016 3.03885 4.45005 3.56816C4.25311 4.07569 4.11563 4.65474 4.07815 5.50161C4.03749 6.3548 4.02809 6.62566 4.02809 8.78959C4.02809 10.9535 4.03749 11.2244 4.07498 12.0744C4.11246 12.9213 4.25006 13.5035 4.447 14.008C4.65016 14.5435 4.96577 15.0229 5.3721 15.4215C5.77221 15.8263 6.25668 16.1408 6.78803 16.34C7.29753 16.5362 7.87882 16.6731 8.72908 16.7105C9.58227 16.7479 9.8543 16.7572 12.0266 16.7572C14.1989 16.7572 14.4708 16.7479 15.3241 16.7105C16.1743 16.6731 16.7587 16.5362 17.265 16.34C18.3403 15.9259 19.1905 15.079 19.6062 14.008C19.803 13.5005 19.9406 12.9213 19.9781 12.0744C20.0156 11.2244 20.025 10.9535 20.025 8.78959C20.025 6.62566 20.0218 6.3548 19.9843 5.50477ZM18.5435 12.0121C18.5091 12.7905 18.3778 13.2109 18.2684 13.4911C17.9996 14.1854 17.4464 14.7365 16.7493 15.0043C16.468 15.1133 16.043 15.2441 15.2647 15.2782C14.4207 15.3157 14.1676 15.3249 12.0328 15.3249C9.89801 15.3249 9.64174 15.3157 8.80087 15.2782C8.01947 15.2441 7.59751 15.1133 7.31621 15.0043C6.96934 14.8766 6.6536 14.6742 6.39733 14.4096C6.13165 14.1511 5.92849 13.8398 5.80029 13.4943C5.69089 13.214 5.55964 12.7905 5.52533 12.0153C5.48773 11.1746 5.47845 10.9224 5.47845 8.7958C5.47845 6.6692 5.48773 6.41391 5.52533 5.57641C5.55964 4.79802 5.69089 4.37769 5.80029 4.09746C5.92849 3.75181 6.13165 3.43741 6.4005 3.182C6.65983 2.91735 6.97239 2.71496 7.31938 2.58738C7.60069 2.47841 8.02582 2.34766 8.80405 2.31336C9.64796 2.27602 9.90119 2.26666 12.0359 2.26666C14.1739 2.26666 14.427 2.27602 15.2678 2.31336C16.0492 2.34766 16.4712 2.47841 16.7525 2.58738C17.0994 2.71496 17.4151 2.91735 17.6714 3.182C17.9371 3.44045 18.1402 3.75181 18.2684 4.09746C18.3778 4.37769 18.5091 4.80106 18.5435 5.57641C18.581 6.41708 18.5904 6.6692 18.5904 8.7958C18.5904 10.9224 18.581 11.1715 18.5435 12.0121Z" fill="white"/>
<path d="M12.0297 4.69531C9.76054 4.69531 7.91948 6.52916 7.91948 8.78966C7.91948 11.0502 9.76054 12.884 12.0297 12.884C14.2989 12.884 16.1398 11.0502 16.1398 8.78966C16.1398 6.52916 14.2989 4.69531 12.0297 4.69531ZM12.0297 11.4456C10.5576 11.4456 9.36349 10.2562 9.36349 8.78966C9.36349 7.32312 10.5576 6.13376 12.0297 6.13376C13.5019 6.13376 14.6958 7.32312 14.6958 8.78966C14.6958 10.2562 13.5019 11.4456 12.0297 11.4456Z" fill="white"/>
<path d="M17.262 4.53348C17.262 5.06133 16.8324 5.48932 16.3023 5.48932C15.7725 5.48932 15.3428 5.06133 15.3428 4.53348C15.3428 4.00551 15.7725 3.57764 16.3023 3.57764C16.8324 3.57764 17.262 4.00551 17.262 4.53348Z" fill="white"/>
</g>
<defs>
<filter id="filter0_d_138683_55" x="-1.52588e-05" y="0.818848" width="24" height="23.9385" filterUnits="userSpaceOnUse" color-interpolation-filters="sRGB">
<feFlood flood-opacity="0" result="BackgroundImageFix"/>
<feColorMatrix in="SourceAlpha" type="matrix" values="0 0 0 0 0 0 0 0 0 0 0 0 0 0 0 0 0 0 127 0" result="hardAlpha"/>
<feOffset dy="4"/>
<feGaussianBlur stdDeviation="2"/>
<feComposite in2="hardAlpha" operator="out"/>
<feColorMatrix type="matrix" values="0 0 0 0 0 0 0 0 0 0 0 0 0 0 0 0 0 0 0.25 0"/>
<feBlend mode="normal" in2="BackgroundImageFix" result="effect1_dropShadow_138683_55"/>
<feBlend mode="normal" in="SourceGraphic" in2="effect1_dropShadow_138683_55" result="shape"/>
</filter>
<clipPath id="clip0_138683_55">
<rect width="16" height="15.9384" fill="white" transform="translate(3.99998 0.818848)"/>
</clipPath>
</defs>
</svg>
