<svg width="14" height="15" viewBox="0 0 14 15" fill="none" xmlns="http://www.w3.org/2000/svg">
<g clip-path="url(#clip0_138683_51)">
<path d="M12.6 0.814941H1.39998C0.629985 0.814941 -1.52588e-05 1.44252 -1.52588e-05 2.20955V13.3664C-1.52588e-05 14.1334 0.629985 14.761 1.39998 14.761H12.6C13.37 14.761 14 14.1334 14 13.3664V2.20955C14 1.44252 13.37 0.814941 12.6 0.814941ZM4.19998 12.6691H2.09998V6.39337H4.19998V12.6691ZM3.14998 5.20796C2.44998 5.20796 1.88998 4.65011 1.88998 3.95281C1.88998 3.25551 2.44998 2.69766 3.14998 2.69766C3.84998 2.69766 4.40998 3.25551 4.40998 3.95281C4.40998 4.65011 3.84998 5.20796 3.14998 5.20796ZM11.9 12.6691H9.79998V8.9734C9.79998 8.41558 9.30999 7.92744 8.74998 7.92744C8.18999 7.92744 7.69999 8.41558 7.69999 8.9734V12.6691H5.59998V6.39337H7.69999V7.23014C8.04998 6.6723 8.81998 6.25391 9.44998 6.25391C10.78 6.25391 11.9 7.3696 11.9 8.69448V12.6691Z" fill="white"/>
</g>
<defs>
<clipPath id="clip0_138683_51">
<rect width="14" height="13.9461" fill="white" transform="translate(-1.52588e-05 0.814941)"/>
</clipPath>
</defs>
</svg>
