<svg width="20" height="21" viewBox="0 0 20 21" fill="none" xmlns="http://www.w3.org/2000/svg">
<g clip-path="url(#clip0_138683_45)">
<path d="M20 4.61068C19.2562 4.93567 18.4637 5.15109 17.6375 5.25568C18.4875 4.75014 19.1362 3.95571 19.4412 2.99816C18.6487 3.46884 17.7737 3.80131 16.8412 3.98684C16.0887 3.18867 15.0162 2.69434 13.8462 2.69434C11.5762 2.69434 9.74873 4.52974 9.74873 6.77979C9.74873 7.10354 9.77623 7.41483 9.84373 7.71119C6.43498 7.54558 3.41873 5.91812 1.39248 3.43896C1.03873 4.05034 0.831235 4.75014 0.831235 5.50347C0.831235 6.91801 1.56248 8.17191 2.65248 8.89785C1.99373 8.8854 1.34748 8.69489 0.799985 8.3948C0.799985 8.40725 0.799985 8.42344 0.799985 8.43962C0.799985 10.4244 2.22123 12.0731 4.08498 12.4529C3.75123 12.5438 3.38748 12.5873 3.00998 12.5873C2.74748 12.5873 2.48248 12.5724 2.23373 12.5176C2.76498 14.1351 4.27248 15.3243 6.06499 15.3629C4.66998 16.4499 2.89873 17.1049 0.981235 17.1049C0.644985 17.1049 0.322485 17.0899 -1.52588e-05 17.0488C1.81623 18.2156 3.96873 18.8818 6.28998 18.8818C13.835 18.8818 17.96 12.6558 17.96 7.25919C17.96 7.07863 17.9537 6.90431 17.945 6.73123C18.7587 6.15595 19.4425 5.43748 20 4.61068Z" fill="white"/>
</g>
<defs>
<clipPath id="clip0_138683_45">
<rect width="20" height="19.923" fill="white" transform="translate(-1.52588e-05 0.82666)"/>
</clipPath>
</defs>
</svg>
